<?xml version="1.0" encoding="utf-8"?>
<!-- Generator: Adobe Illustrator 16.0.0, SVG Export Plug-In . SVG Version: 6.00 Build 0)  -->
<!DOCTYPE svg PUBLIC "-//W3C//DTD SVG 1.1//EN" "http://www.w3.org/Graphics/SVG/1.1/DTD/svg11.dtd">
<svg version="1.1" id="Layer_1" xmlns="http://www.w3.org/2000/svg" xmlns:xlink="http://www.w3.org/1999/xlink" x="0px" y="0px"
	 width="341.333px" height="149.333px" viewBox="0 0 341.333 149.333" enable-background="new 0 0 341.333 149.333"
	 xml:space="preserve">
<path d="M222.133,72.267 M29.333,75.333v56.934l23.733-0.533C79.2,131.067,83.733,130,95.333,122
	c7.333-5.066,14-13.999,17.466-23.333c1.2-3.334,2.534-12,2.8-19.334c1.466-27.733-8-45.866-28.934-55.866
	c-8.533-4-9.066-4.133-32.933-4.534l-24.4-0.533V75.333z M76.934,40.8C86.934,45.6,92,57.066,92,75.333
	c0,17.867-5.2,29.734-15.066,34.4c-2.534,1.2-8.8,2.667-14.133,3.066l-9.467,0.934v-76.8l9.467,0.934
	C68.133,38.267,74.4,39.733,76.934,40.8z M234.667,75.333V132h76v-18.667l-25.6-0.266l-25.734-0.4l-0.799-30h44.133V64h-44.133
	l0.799-26l25.734-0.4l25.6-0.267V18.667h-76V75.333z"/>
<path fill="#FF4F4F" d="M223.678,73.843c-3.2-12.799-6.934-17.866-29.2-40l-20.399-20.4L153.412,34.51l0,0
	c-26.4,26.8-28.533,30.667-28.533,51.067c0,12.666,0.4,14.799,3.733,21.6c13.467,27.333,47.733,37.066,73.2,20.8
	C219.678,116.644,228.877,93.977,223.678,73.843"/>
<path fill="#FFFFFF" d="M194.478,55.177c8.8,9.067,14.134,25.333,8.933,27.333c-6.266,2.399-23.199-25.867-18.266-30.667
	C187.011,49.844,190.612,51.177,194.478,55.177z"/>
</svg>
